<?xml version="1.0" encoding="utf-8"?>
<!-- Generator: Adobe Illustrator 19.0.0, SVG Export Plug-In . SVG Version: 6.00 Build 0)  -->
<svg version="1.1" baseProfile="tiny" xmlns="http://www.w3.org/2000/svg" xmlns:xlink="http://www.w3.org/1999/xlink" x="0px"
	 y="0px" viewBox="0 0 86 32" xml:space="preserve">
<g id="圆角矩形_1_1_">
</g>
<g id="Eloan">
	<g>
		<g id="圆角矩形_1">
			<path fill-rule="evenodd" fill="#3498DB" d="M23,0H0v23c0,5,4,9,9,9h23V9C32,4,28,0,23,0z"/>
		</g>
		<g>
			<path fill="#FFFFFF" d="M27.3,25.3H16.1V6.6h10.6v2.1h-8.1v5.8h7.4v2.1h-7.4v6.7h8.6V25.3z"/>
			<path fill="#999999" d="M36.6,25.3h-2.2V6.6h2.2V25.3z"/>
			<path fill="#999999" d="M55.4,19.1c0,1.9-0.6,3.4-1.8,4.6c-1.2,1.2-2.6,1.8-4.2,1.8c-1.6,0-3-0.6-4.2-1.8
				c-1.2-1.2-1.8-2.7-1.8-4.6c0-1.9,0.6-3.4,1.8-4.6c1.2-1.2,2.6-1.8,4.2-1.8c1.6,0,3,0.6,4.2,1.8C54.8,15.7,55.4,17.2,55.4,19.1z
				 M53,19.1c0-1.5-0.4-2.6-1.1-3.3c-0.7-0.7-1.5-1.1-2.4-1.1s-1.7,0.4-2.4,1.1c-0.7,0.7-1.1,1.8-1.1,3.3c0,1.5,0.4,2.6,1.1,3.3
				c0.7,0.7,1.5,1.1,2.4,1.1s1.7-0.4,2.4-1.1C52.6,21.7,53,20.6,53,19.1z"/>
			<path fill="#999999" d="M69.2,25.3h-2.6c-0.1-0.1-0.3-0.3-0.3-0.6c-0.1-0.3-0.1-0.6-0.1-0.9c-0.5,0.6-1.1,1-1.9,1.3
				c-0.7,0.3-1.5,0.4-2.3,0.4c-1.2,0-2.2-0.3-3-0.9c-0.8-0.6-1.2-1.4-1.2-2.5s0.4-2,1.1-2.6c0.7-0.7,1.9-1.1,3.4-1.3
				c1-0.1,1.9-0.3,2.7-0.5s1.1-0.5,1.1-0.9c0-0.4-0.2-0.9-0.5-1.3s-1-0.7-2.1-0.7c-0.9,0-1.5,0.2-1.9,0.5c-0.4,0.3-0.7,0.8-0.8,1.4
				h-2.4c0.1-1.2,0.7-2.1,1.6-2.8c0.9-0.7,2.1-1,3.6-1c1.6,0,2.8,0.4,3.6,1.1c0.8,0.7,1.2,1.8,1.2,3.1v6c0,0.4,0.1,0.8,0.2,1.2
				C68.7,24.5,68.9,24.9,69.2,25.3z M66.1,21.2V19c-0.4,0.1-0.9,0.3-1.3,0.4c-0.4,0.1-1.1,0.2-2,0.4c-1.1,0.1-1.8,0.4-2.1,0.8
				c-0.3,0.4-0.5,0.8-0.5,1.3c0,0.4,0.2,0.8,0.5,1.1s0.8,0.5,1.5,0.5s1.4-0.2,2.1-0.5C65.1,22.6,65.7,22,66.1,21.2z"/>
			<path fill="#999999" d="M82.8,25.3h-2.2v-7.9c0-0.9-0.2-1.6-0.7-2.1c-0.4-0.5-1-0.8-1.8-0.8c-0.9,0-1.8,0.5-2.7,1.5
				c-0.8,1-1.3,2.2-1.3,3.7v5.6h-2.2V13h2.2v2.3c0.6-0.8,1.2-1.4,1.9-1.9c0.7-0.4,1.6-0.7,2.7-0.7c1.3,0,2.3,0.4,3,1.1
				c0.7,0.7,1,1.6,1,2.7V25.3z"/>
		</g>
	</g>
</g>
</svg>
